<svg width="14" height="14" viewBox="0 0 14 14" fill="none" xmlns="http://www.w3.org/2000/svg">
<path fill-rule="evenodd" clip-rule="evenodd" d="M6.99871 0.333252C5.18814 0.333252 4.96111 0.340926 4.25004 0.37337C3.54045 0.405735 3.05583 0.518443 2.63178 0.683257C2.19339 0.853601 1.8216 1.08156 1.45096 1.45218C1.08034 1.82282 0.852381 2.19461 0.682036 2.633C0.517222 3.05705 0.404514 3.54167 0.37215 4.25126C0.339706 4.96233 0.332031 5.18936 0.332031 6.99993C0.332031 8.81048 0.339706 9.03751 0.37215 9.74858C0.404514 10.4582 0.517222 10.9428 0.682036 11.3668C0.852381 11.8052 1.08034 12.177 1.45096 12.5477C1.8216 12.9183 2.19339 13.1462 2.63178 13.3166C3.05583 13.4814 3.54045 13.5941 4.25004 13.6265C4.96111 13.6589 5.18814 13.6666 6.99871 13.6666C8.80926 13.6666 9.03628 13.6589 9.74736 13.6265C10.4569 13.5941 10.9416 13.4814 11.3656 13.3166C11.804 13.1462 12.1758 12.9183 12.5464 12.5477C12.9171 12.177 13.145 11.8052 13.3154 11.3668C13.4802 10.9428 13.5929 10.4582 13.6252 9.74858C13.6577 9.03751 13.6654 8.81048 13.6654 6.99993C13.6654 5.18936 13.6577 4.96233 13.6252 4.25126C13.5929 3.54167 13.4802 3.05705 13.3154 2.633C13.145 2.19461 12.9171 1.82282 12.5464 1.45218C12.1758 1.08156 11.804 0.853601 11.3656 0.683257C10.9416 0.518443 10.4569 0.405735 9.74736 0.37337C9.03628 0.340926 8.80926 0.333252 6.99871 0.333252ZM6.99871 1.53445C8.77877 1.53445 8.98963 1.54125 9.6926 1.57333C10.3426 1.60297 10.6956 1.71157 10.9305 1.80287C11.2417 1.92381 11.4638 2.06827 11.697 2.30157C11.9303 2.53485 12.0748 2.75693 12.1957 3.06811C12.287 3.30303 12.3957 3.65602 12.4253 4.30601C12.4574 5.00899 12.4642 5.21985 12.4642 6.99993C12.4642 8.77999 12.4574 8.99085 12.4253 9.69382C12.3957 10.3438 12.287 10.6968 12.1957 10.9317C12.0748 11.2429 11.9303 11.465 11.697 11.6983C11.4638 11.9316 11.2417 12.076 10.9305 12.197C10.6956 12.2883 10.3426 12.3969 9.6926 12.4265C8.98974 12.4586 8.7789 12.4654 6.99871 12.4654C5.21849 12.4654 5.00769 12.4586 4.30479 12.4265C3.6548 12.3969 3.3018 12.2883 3.06689 12.197C2.75571 12.076 2.53363 11.9316 2.30035 11.6983C2.06708 11.465 1.92259 11.2429 1.80165 10.9317C1.71035 10.6968 1.60174 10.3438 1.57211 9.69382C1.54003 8.99085 1.53323 8.77999 1.53323 6.99993C1.53323 5.21985 1.54003 5.00899 1.57211 4.30601C1.60174 3.65602 1.71035 3.30303 1.80165 3.06811C1.92259 2.75693 2.06705 2.53485 2.30035 2.30157C2.53363 2.06827 2.75571 1.92381 3.06689 1.80287C3.3018 1.71157 3.6548 1.60297 4.30479 1.57333C5.00777 1.54125 5.21863 1.53445 6.99871 1.53445V1.53445Z" fill="white"/>
</svg>
