<svg width="15" height="12" viewBox="0 0 15 12" fill="none" xmlns="http://www.w3.org/2000/svg">
<path d="M12.8023 3.28027C12.8104 3.39781 12.8104 3.51534 12.8104 3.63396C12.8104 7.24827 10.0587 11.4167 5.02709 11.4167V11.4145C3.54074 11.4167 2.08525 10.991 0.833984 10.1883C1.05011 10.2143 1.26732 10.2273 1.48508 10.2278C2.71685 10.2289 3.91341 9.81561 4.88246 9.05462C3.7119 9.03241 2.68543 8.26925 2.32684 7.15511C2.73689 7.23419 3.1594 7.21794 3.56186 7.10799C2.28567 6.85017 1.36753 5.72899 1.36753 4.42691C1.36753 4.41499 1.36753 4.40362 1.36753 4.39225C1.74779 4.60402 2.17355 4.72156 2.60905 4.73456C1.40708 3.93132 1.03657 2.33242 1.76242 1.08233C3.15127 2.79118 5.20043 3.83003 7.40017 3.93998C7.17971 2.98996 7.48088 1.99444 8.19156 1.32661C9.29332 0.291004 11.0261 0.344084 12.0618 1.44522C12.6745 1.32444 13.2616 1.09966 13.799 0.781182C13.5948 1.41435 13.1674 1.95219 12.5965 2.29396C13.1387 2.23005 13.6684 2.08489 14.1673 1.86336C13.8001 2.41366 13.3375 2.89301 12.8023 3.28027Z" fill="white"/>
</svg>
