<svg width="14" height="12" viewBox="0 0 14 12" fill="none" xmlns="http://www.w3.org/2000/svg">
<path d="M12.3003 3.2803C12.3085 3.39784 12.3085 3.51537 12.3085 3.63399C12.3085 7.2483 9.55676 11.4167 4.52514 11.4167V11.4145C3.03878 11.4167 1.5833 10.991 0.332031 10.1883C0.54816 10.2143 0.765371 10.2273 0.983125 10.2278C2.21489 10.2289 3.41145 9.81564 4.38051 9.05465C3.20995 9.03244 2.18348 8.26928 1.82489 7.15514C2.23494 7.23422 2.65744 7.21797 3.05991 7.10802C1.78372 6.8502 0.865581 5.72902 0.865581 4.42694C0.865581 4.41502 0.865581 4.40365 0.865581 4.39228C1.24584 4.60405 1.67159 4.72159 2.1071 4.73459C0.905124 3.93135 0.534618 2.33245 1.26046 1.08236C2.64932 2.79121 4.69847 3.83006 6.89822 3.94001C6.67776 2.98999 6.97893 1.99447 7.6896 1.32664C8.79137 0.291035 10.5242 0.344115 11.5599 1.44525C12.1725 1.32447 12.7597 1.09969 13.297 0.781212C13.0928 1.41438 12.6654 1.95222 12.0945 2.29399C12.6367 2.23008 13.1665 2.08492 13.6654 1.86339C13.2981 2.41369 12.8355 2.89304 12.3003 3.2803Z" fill="white"/>
</svg>
