<svg width="14" height="12" viewBox="0 0 14 12" fill="none" xmlns="http://www.w3.org/2000/svg">
<path d="M12.3003 3.27554C12.3085 3.39308 12.3085 3.51061 12.3085 3.62923C12.3085 7.24354 9.55676 11.4119 4.52514 11.4119V11.4098C3.03878 11.4119 1.5833 10.9862 0.332031 10.1835C0.54816 10.2095 0.765371 10.2225 0.983125 10.2231C2.21489 10.2241 3.41145 9.81088 4.38051 9.04989C3.20995 9.02768 2.18348 8.26452 1.82489 7.15038C2.23494 7.22946 2.65744 7.21321 3.05991 7.10326C1.78372 6.84544 0.865581 5.72426 0.865581 4.42218C0.865581 4.41026 0.865581 4.39889 0.865581 4.38752C1.24584 4.59929 1.67159 4.71683 2.1071 4.72983C0.905124 3.92659 0.534618 2.32769 1.26046 1.0776C2.64932 2.78645 4.69847 3.8253 6.89822 3.93525C6.67776 2.98523 6.97893 1.98971 7.6896 1.32188C8.79137 0.286274 10.5242 0.339354 11.5599 1.44049C12.1725 1.31971 12.7597 1.09493 13.297 0.776451C13.0928 1.40962 12.6654 1.94746 12.0945 2.28923C12.6367 2.22532 13.1665 2.08016 13.6654 1.85863C13.2981 2.40893 12.8355 2.88828 12.3003 3.27554Z" fill="white"/>
</svg>
