<svg width="15" height="12" viewBox="0 0 15 12" fill="none" xmlns="http://www.w3.org/2000/svg">
<path d="M12.8023 3.28024C12.8104 3.39778 12.8104 3.51531 12.8104 3.63393C12.8104 7.24824 10.0587 11.4166 5.02709 11.4166V11.4145C3.54074 11.4166 2.08525 10.9909 0.833984 10.1882C1.05011 10.2142 1.26732 10.2272 1.48508 10.2278C2.71685 10.2288 3.91341 9.81558 4.88246 9.05459C3.7119 9.03238 2.68543 8.26922 2.32684 7.15508C2.73689 7.23416 3.1594 7.21791 3.56186 7.10796C2.28567 6.85014 1.36753 5.72896 1.36753 4.42688C1.36753 4.41496 1.36753 4.40359 1.36753 4.39221C1.74779 4.60399 2.17355 4.72153 2.60905 4.73453C1.40708 3.93129 1.03657 2.33239 1.76242 1.0823C3.15127 2.79115 5.20043 3.83 7.40017 3.93995C7.17971 2.98993 7.48088 1.99441 8.19156 1.32657C9.29332 0.290974 11.0261 0.344054 12.0618 1.44519C12.6745 1.32441 13.2616 1.09963 13.799 0.781151C13.5948 1.41432 13.1674 1.95216 12.5965 2.29393C13.1387 2.23002 13.6684 2.08486 14.1673 1.86333C13.8001 2.41363 13.3375 2.89298 12.8023 3.28024Z" fill="white"/>
</svg>
