<svg width="15" height="12" viewBox="0 0 15 12" fill="none" xmlns="http://www.w3.org/2000/svg">
<path d="M12.8003 3.28043C12.8085 3.39796 12.8085 3.51549 12.8085 3.63411C12.8085 7.24843 10.0568 11.4168 5.02514 11.4168V11.4147C3.53878 11.4168 2.0833 10.9911 0.832031 10.1884C1.04816 10.2144 1.26537 10.2274 1.48312 10.2279C2.71489 10.229 3.91145 9.81576 4.88051 9.05477C3.70995 9.03256 2.68348 8.2694 2.32489 7.15527C2.73494 7.23434 3.15744 7.21809 3.55991 7.10814C2.28372 6.85033 1.36558 5.72915 1.36558 4.42706C1.36558 4.41515 1.36558 4.40377 1.36558 4.3924C1.74584 4.60418 2.17159 4.72171 2.6071 4.73471C1.40512 3.93147 1.03462 2.33257 1.76046 1.08248C3.14932 2.79133 5.19847 3.83018 7.39822 3.94014C7.17776 2.99011 7.47893 1.99459 8.1896 1.32676C9.29137 0.291157 11.0242 0.344237 12.0599 1.44538C12.6725 1.32459 13.2597 1.09981 13.797 0.781334C13.5928 1.4145 13.1654 1.95234 12.5945 2.29411C13.1367 2.2302 13.6665 2.08504 14.1654 1.86352C13.7981 2.41381 13.3355 2.89316 12.8003 3.28043Z" fill="white"/>
</svg>
